<?xml version="1.0" encoding="UTF-8"?>
<svg xmlns="http://www.w3.org/2000/svg" viewBox="0 0 1280 1090" width="100%" height="100%" style="background:#f0f4fa;font-family:'Segoe UI',Arial,sans-serif">
<defs>
  <linearGradient id="hdr" x1="0" y1="0" x2="1" y2="0">
    <stop offset="0" stop-color="#0f2a5c"/><stop offset="1" stop-color="#1d4ed8"/>
  </linearGradient>
  <linearGradient id="z-blue" x1="0" y1="0" x2="0" y2="1"><stop offset="0" stop-color="#3b82f6"/><stop offset="1" stop-color="#1d4ed8"/></linearGradient>
  <linearGradient id="z-sky" x1="0" y1="0" x2="0" y2="1"><stop offset="0" stop-color="#93c5fd"/><stop offset="1" stop-color="#60a5fa"/></linearGradient>
  <linearGradient id="z-teal" x1="0" y1="0" x2="0" y2="1"><stop offset="0" stop-color="#2dd4bf"/><stop offset="1" stop-color="#0d9488"/></linearGradient>
  <linearGradient id="z-emerald" x1="0" y1="0" x2="0" y2="1"><stop offset="0" stop-color="#34d399"/><stop offset="1" stop-color="#059669"/></linearGradient>
  <linearGradient id="z-green" x1="0" y1="0" x2="0" y2="1"><stop offset="0" stop-color="#4ade80"/><stop offset="1" stop-color="#16a34a"/></linearGradient>
  <linearGradient id="z-amber" x1="0" y1="0" x2="0" y2="1"><stop offset="0" stop-color="#fbbf24"/><stop offset="1" stop-color="#d97706"/></linearGradient>
  <linearGradient id="z-red" x1="0" y1="0" x2="0" y2="1"><stop offset="0" stop-color="#f87171"/><stop offset="1" stop-color="#dc2626"/></linearGradient>
  <linearGradient id="z-purple" x1="0" y1="0" x2="0" y2="1"><stop offset="0" stop-color="#c084fc"/><stop offset="1" stop-color="#9333ea"/></linearGradient>
  <linearGradient id="z-violet" x1="0" y1="0" x2="0" y2="1"><stop offset="0" stop-color="#a78bfa"/><stop offset="1" stop-color="#7c3aed"/></linearGradient>
  <linearGradient id="z-indigo" x1="0" y1="0" x2="0" y2="1"><stop offset="0" stop-color="#818cf8"/><stop offset="1" stop-color="#4f46e5"/></linearGradient>
  <linearGradient id="z-slate" x1="0" y1="0" x2="0" y2="1"><stop offset="0" stop-color="#94a3b8"/><stop offset="1" stop-color="#475569"/></linearGradient>
  <marker id="ar-red" viewBox="0 0 10 10" refX="8" refY="5" markerWidth="6" markerHeight="6" orient="auto"><path d="M0,0 L10,5 L0,10 z" fill="#dc2626"/></marker>
  <marker id="ar-blue" viewBox="0 0 10 10" refX="8" refY="5" markerWidth="6" markerHeight="6" orient="auto"><path d="M0,0 L10,5 L0,10 z" fill="#1d4ed8"/></marker>
  <marker id="ar-green" viewBox="0 0 10 10" refX="8" refY="5" markerWidth="6" markerHeight="6" orient="auto"><path d="M0,0 L10,5 L0,10 z" fill="#16a34a"/></marker>
  <marker id="ar-orange" viewBox="0 0 10 10" refX="8" refY="5" markerWidth="6" markerHeight="6" orient="auto"><path d="M0,0 L10,5 L0,10 z" fill="#ea580c"/></marker>
  <marker id="ar-purple" viewBox="0 0 10 10" refX="8" refY="5" markerWidth="6" markerHeight="6" orient="auto"><path d="M0,0 L10,5 L0,10 z" fill="#9333ea"/></marker>
  <marker id="ar-gray" viewBox="0 0 10 10" refX="8" refY="5" markerWidth="6" markerHeight="6" orient="auto"><path d="M0,0 L10,5 L0,10 z" fill="#64748b"/></marker>
  <marker id="ar-cyan" viewBox="0 0 10 10" refX="8" refY="5" markerWidth="6" markerHeight="6" orient="auto"><path d="M0,0 L10,5 L0,10 z" fill="#0891b2"/></marker>
  <g id="truck"><rect x="0" y="3" width="30" height="14" rx="2" fill="#dbe4f0"/><rect x="22" y="1" width="8" height="16" rx="2" fill="#93a8c8"/><circle cx="8" cy="17" r="3" fill="#3d5a85"/><circle cx="25" cy="17" r="3" fill="#3d5a85"/></g>
  <g id="pallet"><rect x="0" y="3" width="18" height="12" rx="1" fill="#c9a86a" stroke="#8a6a38" stroke-width="0.8"/><rect x="2" y="5" width="14" height="8" rx="1" fill="#dabd84"/><line x1="2" y1="9" x2="16" y2="9" stroke="#8a6a38" stroke-width="0.8"/></g>
  <g id="box"><rect x="0" y="2" width="14" height="11" rx="1" fill="#e0d0b0" stroke="#a89068" stroke-width="0.8"/><path d="M0,2 L7,6 L14,2" fill="#efe4c8" stroke="#a89068" stroke-width="0.8"/></g>
  <g id="rollcage"><rect x="0" y="0" width="16" height="18" rx="1" fill="none" stroke="#d97706" stroke-width="2"/><line x1="0" y1="6" x2="16" y2="6" stroke="#d97706" stroke-width="1.2"/><line x1="0" y1="12" x2="16" y2="12" stroke="#d97706" stroke-width="1.2"/><circle cx="5" cy="19" r="2.4" fill="#3d5a85"/><circle cx="11" cy="19" r="2.4" fill="#3d5a85"/></g>
</defs>

<rect x="20" y="20" width="1240" height="70" rx="8" fill="url(#hdr)"/>
<text x="640" y="48" text-anchor="middle" font-size="22" font-weight="800" fill="#ffffff">СХЕМА СОРТИРОВОЧНОГО ЦЕНТРА — ВИД СВЕРХУ</text>
<text x="640" y="72" text-anchor="middle" font-size="12" fill="#cfe0ff">100 000 товаров/ч • 3 700 КТЯ/ч • 185 паллет/ч • 400 направлений • 10 сортировщиков</text>

<!-- BUILDING -->
<rect x="60" y="90" width="1160" height="900" rx="10" fill="#ffffff" stroke="#1d4ed8" stroke-width="2.5"/>
<text x="640" y="82" text-anchor="middle" font-size="11" fill="#5b79b8">Здание 232 × 180 м • ≈40 680 м² • масштаб 5 px = 1 м</text>

<!-- INBOUND / OUTBOUND TRUCKS -->
<use href="#truck" x="14" y="500"/><use href="#truck" x="14" y="540"/>
<use href="#truck" x="1232" y="500"/><use href="#truck" x="1232" y="540"/>
<line x1="56" y1="520" x2="66" y2="520" stroke="#dc2626" stroke-width="3" marker-end="url(#ar-red)"/>
<line x1="1224" y1="520" x2="1214" y2="520" stroke="#16a34a" stroke-width="3" marker-end="url(#ar-green)"/>

<!-- ==== MAIN ZONES ==== -->
<rect x="70" y="260" width="110" height="500" rx="8" fill="url(#z-blue)" stroke="#1e40af" stroke-width="1.5"/>
<text x="125" y="300" transform="rotate(-90 125 300)" text-anchor="middle" font-size="15" font-weight="800" fill="#fff">ПРИЁМКА (8 ДОКОВ)</text>
<text x="125" y="700" transform="rotate(-90 125 700)" text-anchor="middle" font-size="9" fill="#dbeafe">22×100 м • 2 200 м² • 185 пал/ч</text>
<g fill="#93c5fd"><rect x="60" y="270" width="12" height="30" rx="2"/><rect x="60" y="325" width="12" height="30" rx="2"/><rect x="60" y="380" width="12" height="30" rx="2"/><rect x="60" y="435" width="12" height="30" rx="2"/><rect x="60" y="490" width="12" height="30" rx="2"/><rect x="60" y="545" width="12" height="30" rx="2"/><rect x="60" y="600" width="12" height="30" rx="2"/><rect x="60" y="655" width="12" height="30" rx="2"/></g>

<rect x="196" y="260" width="38" height="500" rx="8" fill="url(#z-sky)" stroke="#2563eb" stroke-width="1.2"/>
<text x="215" y="290" transform="rotate(-90 215 290)" text-anchor="middle" font-size="10" font-weight="700" fill="#1e3a8a">БУФЕР ПРИЁМКИ</text>
<text x="215" y="700" transform="rotate(-90 215 700)" text-anchor="middle" font-size="7" fill="#1e40af">7.6×100 • 760 м² • 400 мест</text>

<rect x="250" y="260" width="38" height="500" rx="8" fill="url(#z-teal)" stroke="#0d9488" stroke-width="1.2"/>
<text x="269" y="290" transform="rotate(-90 269 290)" text-anchor="middle" font-size="10" font-weight="700" fill="#134e4a">РАЗУКРУПНЕНИЕ</text>
<text x="269" y="700" transform="rotate(-90 269 700)" text-anchor="middle" font-size="7" fill="#134e4a">7.6×100 • 760 м² • депаллетайзеры</text>

<rect x="304" y="260" width="36" height="500" rx="8" fill="url(#z-emerald)" stroke="#059669" stroke-width="1.2"/>
<text x="322" y="290" transform="rotate(-90 322 290)" text-anchor="middle" font-size="10" font-weight="700" fill="#064e3b">ВСКРЫТИЕ КТЯ</text>
<text x="322" y="700" transform="rotate(-90 322 700)" text-anchor="middle" font-size="7" fill="#064e3b">7.2×100 • 720 м² • срез скотча</text>

<rect x="356" y="260" width="38" height="500" rx="8" fill="url(#z-green)" stroke="#16a34a" stroke-width="1.2"/>
<text x="375" y="290" transform="rotate(-90 375 290)" text-anchor="middle" font-size="10" font-weight="700" fill="#052e16">СТОК КТЯ + НОВЫЕ</text>
<text x="375" y="700" transform="rotate(-90 375 700)" text-anchor="middle" font-size="7" fill="#052e16">7.6×100 • 760 м² • 2 960+740/ч</text>

<rect x="410" y="220" width="38" height="660" rx="8" fill="url(#z-amber)" stroke="#b45309" stroke-width="1.5"/>
<text x="429" y="250" transform="rotate(-90 429 250)" text-anchor="middle" font-size="11" font-weight="800" fill="#451a03">ИНФИДЫ — 10 СТАНЦИЙ</text>
<text x="429" y="840" transform="rotate(-90 429 840)" text-anchor="middle" font-size="8" fill="#78350f">7.6×132 м • 1 003 м² • сканеры, вес</text>

<!-- SORTING -->
<rect x="464" y="120" width="380" height="840" rx="10" fill="url(#z-red)" stroke="#991b1b" stroke-width="2"/>
<text x="654" y="146" text-anchor="middle" font-size="19" font-weight="800" fill="#fff">СОРТИРОВКА — 10 КОНВЕЙЕРОВ</text>
<text x="654" y="164" text-anchor="middle" font-size="10" fill="#fee2e2">76×168 м • ≈12 768 м² • 100 000 товаров/ч • 400 направлений</text>
<g font-size="8" fill="#fee2e2">
  <rect x="470" y="250.5" width="368" height="24" rx="4" fill="#fff" opacity="0.9"/><text x="472" y="265" fill="#7f1d1d">К1</text>
  <rect x="470" y="315.5" width="368" height="24" rx="4" fill="#fff" opacity="0.9"/><text x="472" y="330" fill="#7f1d1d">К2</text>
  <rect x="470" y="380.5" width="368" height="24" rx="4" fill="#fff" opacity="0.9"/><text x="472" y="395" fill="#7f1d1d">К3</text>
  <rect x="470" y="445.5" width="368" height="24" rx="4" fill="#fff" opacity="0.9"/><text x="472" y="460" fill="#7f1d1d">К4</text>
  <rect x="470" y="510.5" width="368" height="24" rx="4" fill="#fff" opacity="0.9"/><text x="472" y="525" fill="#7f1d1d">К5</text>
  <rect x="470" y="575.5" width="368" height="24" rx="4" fill="#fff" opacity="0.9"/><text x="472" y="590" fill="#7f1d1d">К6</text>
  <rect x="470" y="640.5" width="368" height="24" rx="4" fill="#fff" opacity="0.9"/><text x="472" y="655" fill="#7f1d1d">К7</text>
  <rect x="470" y="705.5" width="368" height="24" rx="4" fill="#fff" opacity="0.9"/><text x="472" y="720" fill="#7f1d1d">К8</text>
  <rect x="470" y="770.5" width="368" height="24" rx="4" fill="#fff" opacity="0.9"/><text x="472" y="785" fill="#7f1d1d">К9</text>
  <rect x="470" y="835.5" width="368" height="24" rx="4" fill="#fff" opacity="0.9"/><text x="472" y="850" fill="#7f1d1d">К10</text>
</g>

<!-- INFEED STATIONS -->
<g font-size="8" font-weight="700" fill="#451a03">
  <rect x="416" y="244.5" width="28" height="36" rx="4" fill="#fde68a" stroke="#b45309"/><text x="430" y="266" text-anchor="middle">И1</text>
  <rect x="416" y="309.5" width="28" height="36" rx="4" fill="#fde68a" stroke="#b45309"/><text x="430" y="331" text-anchor="middle">И2</text>
  <rect x="416" y="374.5" width="28" height="36" rx="4" fill="#fde68a" stroke="#b45309"/><text x="430" y="396" text-anchor="middle">И3</text>
  <rect x="416" y="439.5" width="28" height="36" rx="4" fill="#fde68a" stroke="#b45309"/><text x="430" y="461" text-anchor="middle">И4</text>
  <rect x="416" y="504.5" width="28" height="36" rx="4" fill="#fde68a" stroke="#b45309"/><text x="430" y="526" text-anchor="middle">И5</text>
  <rect x="416" y="569.5" width="28" height="36" rx="4" fill="#fde68a" stroke="#b45309"/><text x="430" y="591" text-anchor="middle">И6</text>
  <rect x="416" y="634.5" width="28" height="36" rx="4" fill="#fde68a" stroke="#b45309"/><text x="430" y="656" text-anchor="middle">И7</text>
  <rect x="416" y="699.5" width="28" height="36" rx="4" fill="#fde68a" stroke="#b45309"/><text x="430" y="721" text-anchor="middle">И8</text>
  <rect x="416" y="764.5" width="28" height="36" rx="4" fill="#fde68a" stroke="#b45309"/><text x="430" y="786" text-anchor="middle">И9</text>
  <rect x="416" y="829.5" width="28" height="36" rx="4" fill="#fde68a" stroke="#b45309"/><text x="430" y="851" text-anchor="middle">И10</text>
</g>

<rect x="860" y="260" width="46" height="430" rx="8" fill="url(#z-purple)" stroke="#7e22ce" stroke-width="1.2"/>
<text x="883" y="290" transform="rotate(-90 883 290)" text-anchor="middle" font-size="10" font-weight="700" fill="#fff">ЗАКЛЕЙКА</text>
<text x="883" y="640" transform="rotate(-90 883 640)" text-anchor="middle" font-size="7" fill="#f3e8ff">9.2×86 • 791 м² • 3 700/ч</text>

<rect x="922" y="260" width="80" height="430" rx="8" fill="url(#z-violet)" stroke="#6d28d9" stroke-width="1.2"/>
<text x="962" y="290" transform="rotate(-90 962 290)" text-anchor="middle" font-size="10" font-weight="700" fill="#fff">СОРТИРОВКА КТЯ ПО НАПРАВЛЕНИЯМ</text>
<text x="962" y="640" transform="rotate(-90 962 640)" text-anchor="middle" font-size="7" fill="#ede9fe">16×86 • 1 376 м² • 400 ячеек + буфер</text>

<rect x="1018" y="260" width="36" height="430" rx="8" fill="url(#z-indigo)" stroke="#4338ca" stroke-width="1.2"/>
<text x="1036" y="290" transform="rotate(-90 1036 290)" text-anchor="middle" font-size="9" font-weight="700" fill="#fff">ПАЛЛЕТИ- РОВАНИЕ</text>
<text x="1036" y="640" transform="rotate(-90 1036 640)" text-anchor="middle" font-size="7" fill="#e0e7ff">7.2×86 • 619 м² • 185 пал/ч</text>

<rect x="1070" y="260" width="130" height="720" rx="10" fill="url(#z-slate)" stroke="#334155" stroke-width="1.5"/>
<text x="1135" y="290" transform="rotate(-90 1135 290)" text-anchor="middle" font-size="13" font-weight="800" fill="#fff">ОТГРУЗКА (24 ВОРОТА)</text>
<text x="1135" y="920" transform="rotate(-90 1135 920)" text-anchor="middle" font-size="9" fill="#e2e8f0">26×144 • 3 744 м² • 12 маш/ч • 2 ч/маш</text>
<g fill="#cbd5e1"><rect x="1208" y="270" width="12" height="22" rx="2"/><rect x="1208" y="300" width="12" height="22" rx="2"/><rect x="1208" y="330" width="12" height="22" rx="2"/><rect x="1208" y="360" width="12" height="22" rx="2"/><rect x="1208" y="390" width="12" height="22" rx="2"/><rect x="1208" y="420" width="12" height="22" rx="2"/><rect x="1208" y="450" width="12" height="22" rx="2"/><rect x="1208" y="480" width="12" height="22" rx="2"/><rect x="1208" y="510" width="12" height="22" rx="2"/><rect x="1208" y="540" width="12" height="22" rx="2"/><rect x="1208" y="570" width="12" height="22" rx="2"/><rect x="1208" y="600" width="12" height="22" rx="2"/><rect x="1208" y="630" width="12" height="22" rx="2"/><rect x="1208" y="660" width="12" height="22" rx="2"/><rect x="1208" y="690" width="12" height="22" rx="2"/><rect x="1208" y="720" width="12" height="22" rx="2"/><rect x="1208" y="750" width="12" height="22" rx="2"/><rect x="1208" y="780" width="12" height="22" rx="2"/><rect x="1208" y="810" width="12" height="22" rx="2"/><rect x="1208" y="840" width="12" height="22" rx="2"/><rect x="1208" y="870" width="12" height="22" rx="2"/><rect x="1208" y="900" width="12" height="22" rx="2"/><rect x="1208" y="930" width="12" height="22" rx="2"/><rect x="1208" y="960" width="12" height="22" rx="2"/></g>

<!-- ==== AUX ZONES ==== -->
<rect x="70" y="100" width="324" height="148" rx="8" fill="#e2e8f0" stroke="#94a3b8" stroke-width="1.2"/>
<text x="232" y="130" text-anchor="middle" font-size="12" font-weight="800" fill="#1e293b">ИНФРАСТРУКТУРА</text>
<text x="232" y="148" text-anchor="middle" font-size="9" fill="#334155">Серверная WMS/WES • диспетчерская</text>
<text x="232" y="164" text-anchor="middle" font-size="9" fill="#334155">Зарядные станции AGV • бытовые</text>
<text x="232" y="220" text-anchor="middle" font-size="8" fill="#1e293b">64.8×29.6 м • ≈1 918 м²</text>

<rect x="860" y="100" width="194" height="148" rx="8" fill="#f3e8ff" stroke="#c084fc" stroke-width="1.2"/>
<text x="957" y="130" text-anchor="middle" font-size="12" font-weight="800" fill="#6b21a8">ВОЗВРАТНЫЕ КАНАЛЫ</text>
<text x="957" y="148" text-anchor="middle" font-size="9" fill="#7e22ce">Повторный прогон • отбраковка</text>
<text x="957" y="164" text-anchor="middle" font-size="9" fill="#7e22ce">1–3 % исключений</text>
<text x="957" y="220" text-anchor="middle" font-size="8" fill="#6b21a8">38.8×29.6 м • ≈1 148 м²</text>

<rect x="70" y="772" width="324" height="128" rx="8" fill="#ecfccb" stroke="#84cc16" stroke-width="1.2"/>
<text x="232" y="800" text-anchor="middle" font-size="12" font-weight="800" fill="#3f6212">НАКОПИТЕЛЬ ПУСТЫХ ПАЛЛЕТ</text>
<text x="232" y="820" text-anchor="middle" font-size="9" fill="#4d7c0f">185 паллет/ч • возврат в циркуляцию</text>
<text x="232" y="866" text-anchor="middle" font-size="8" fill="#3f6212">64.8×25.6 м • ≈1 659 м²</text>
<use href="#pallet" x="180" y="840"/><use href="#pallet" x="210" y="840"/><use href="#pallet" x="240" y="840"/>

<rect x="70" y="912" width="120" height="68" rx="8" fill="#d1d5db" stroke="#6b7280" stroke-width="1.2"/>
<text x="130" y="936" text-anchor="middle" font-size="9" font-weight="800" fill="#111827">БРАК И ОТХОДЫ</text>
<text x="130" y="952" text-anchor="middle" font-size="7" fill="#1f2937">740 КТЯ/ч • компактор</text>
<text x="130" y="966" text-anchor="middle" font-size="6" fill="#1f2937">24×13.6 м • 326 м²</text>

<rect x="860" y="702" width="194" height="278" rx="8" fill="#ffedd5" stroke="#ea580c" stroke-width="1.5"/>
<text x="957" y="730" text-anchor="middle" font-size="13" font-weight="800" fill="#9a3412">NONSORT</text>
<text x="957" y="748" text-anchor="middle" font-size="9" fill="#c2410c">Ручная сортировка по адресным ячейкам</text>
<text x="957" y="764" text-anchor="middle" font-size="9" fill="#c2410c">негабарит >320 мм, форма, хрупкость</text>
<text x="957" y="820" text-anchor="middle" font-size="8" fill="#9a3412">38.8×55.6 м • ≈2 157 м²</text>
<text x="957" y="838" text-anchor="middle" font-size="8" fill="#9a3412">до 192 роллтейнеров/ч (16 на машину)</text>
<use href="#rollcage" x="910" y="860"/><use href="#rollcage" x="940" y="860"/><use href="#rollcage" x="910" y="900"/><use href="#rollcage" x="940" y="900"/>

<!-- ==== FLOW ARROWS ==== -->
<g stroke-width="2.5">
  <line x1="182" y1="500" x2="195" y2="500" stroke="#1d4ed8" marker-end="url(#ar-blue)"/>
  <line x1="236" y1="500" x2="249" y2="500" stroke="#1d4ed8" marker-end="url(#ar-blue)"/>
  <line x1="290" y1="500" x2="303" y2="500" stroke="#0891b2" marker-end="url(#ar-cyan)"/>
  <line x1="342" y1="500" x2="355" y2="500" stroke="#16a34a" marker-end="url(#ar-green)"/>
  <line x1="396" y1="500" x2="409" y2="500" stroke="#ea580c" marker-end="url(#ar-orange)"/>
  <line x1="450" y1="262" x2="463" y2="262" stroke="#dc2626" marker-end="url(#ar-red)"/>
  <line x1="450" y1="327" x2="463" y2="327" stroke="#dc2626" marker-end="url(#ar-red)"/>
  <line x1="450" y1="392" x2="463" y2="392" stroke="#dc2626" marker-end="url(#ar-red)"/>
  <line x1="450" y1="457" x2="463" y2="457" stroke="#dc2626" marker-end="url(#ar-red)"/>
  <line x1="450" y1="522" x2="463" y2="522" stroke="#dc2626" marker-end="url(#ar-red)"/>
  <line x1="450" y1="587" x2="463" y2="587" stroke="#dc2626" marker-end="url(#ar-red)"/>
  <line x1="450" y1="652" x2="463" y2="652" stroke="#dc2626" marker-end="url(#ar-red)"/>
  <line x1="450" y1="717" x2="463" y2="717" stroke="#dc2626" marker-end="url(#ar-red)"/>
  <line x1="450" y1="782" x2="463" y2="782" stroke="#dc2626" marker-end="url(#ar-red)"/>
  <line x1="450" y1="847" x2="463" y2="847" stroke="#dc2626" marker-end="url(#ar-red)"/>
  <line x1="846" y1="500" x2="859" y2="500" stroke="#dc2626" marker-end="url(#ar-red)"/>
  <line x1="908" y1="500" x2="921" y2="500" stroke="#9333ea" marker-end="url(#ar-purple)"/>
  <line x1="1004" y1="500" x2="1017" y2="500" stroke="#1d4ed8" marker-end="url(#ar-blue)"/>
  <line x1="1056" y1="500" x2="1069" y2="500" stroke="#16a34a" marker-end="url(#ar-green)"/>
  <line x1="1056" y1="850" x2="1069" y2="850" stroke="#ea580c" marker-end="url(#ar-orange)"/>
</g>

<!-- vertical auxiliary flows -->
<path d="M 269 762 L 269 770" stroke="#16a34a" stroke-width="2.5" marker-end="url(#ar-green)" fill="none"/>
<path d="M 396 760 L 396 962 L 192 962" stroke="#64748b" stroke-width="2" fill="none" marker-end="url(#ar-gray)" stroke-dasharray="4,3"/>
<path d="M 429 878 L 429 968 L 858 968" stroke="#ea580c" stroke-width="2" fill="none" marker-end="url(#ar-orange)" stroke-dasharray="4,3"/>
<path d="M 429 222 L 429 112 L 858 112" stroke="#9333ea" stroke-width="2" fill="none" marker-end="url(#ar-purple)" stroke-dasharray="4,3"/>
<line x1="130" y1="980" x2="130" y2="986" stroke="#64748b" stroke-width="2" marker-end="url(#ar-gray)"/>

<!-- flow labels inside destination zones -->
<g font-size="8">
  <text x="196" y="256" font-size="8" fill="#1e40af">паллеты 185/ч</text>
  <text x="250" y="256" font-size="8" fill="#134e4a">паллеты 185/ч</text>
  <text x="304" y="256" font-size="8" fill="#064e3b">КТЯ 3 700/ч</text>
  <text x="356" y="256" font-size="8" fill="#052e16">пустые КТЯ 2 960/ч</text>
  <text x="410" y="216" font-size="8" fill="#78350f">КТЯ на инфиды</text>
  <text x="860" y="256" font-size="8" fill="#fff">заполн. 3 700/ч</text>
  <text x="922" y="256" font-size="8" fill="#fff">по направлениям</text>
  <text x="1018" y="256" font-size="8" fill="#fff">паллеты 185/ч</text>
</g>

<!-- LEGEND -->
<rect x="60" y="1010" width="1160" height="60" rx="8" fill="#ffffff" stroke="#b7c7e5"/>
<text x="80" y="1035" font-size="13" font-weight="800" fill="#0f2a5c">УСЛОВНЫЕ ОБОЗНАЧЕНИЯ ПОТОКОВ</text>
<g font-size="10" fill="#334155">
  <line x1="80" y1="1050" x2="110" y2="1050" stroke="#dc2626" stroke-width="3" marker-end="url(#ar-red)"/><text x="116" y="1054">Товары 100 000/ч</text>
  <line x1="240" y1="1050" x2="270" y2="1050" stroke="#1d4ed8" stroke-width="3" marker-end="url(#ar-blue)"/><text x="276" y="1054">КТЯ</text>
  <line x1="330" y1="1050" x2="360" y2="1050" stroke="#16a34a" stroke-width="3" marker-end="url(#ar-green)"/><text x="366" y="1054">Паллеты 185/ч</text>
  <line x1="450" y1="1050" x2="480" y2="1050" stroke="#ea580c" stroke-width="3" marker-end="url(#ar-orange)"/><text x="486" y="1054">Nonsort / роллтейнеры</text>
  <line x1="620" y1="1050" x2="650" y2="1050" stroke="#9333ea" stroke-width="3" marker-end="url(#ar-purple)"/><text x="656" y="1054">Возвратные 1–3%</text>
  <line x1="780" y1="1050" x2="810" y2="1050" stroke="#64748b" stroke-width="3" marker-end="url(#ar-gray)"/><text x="816" y="1054">Брак 740/ч</text>
  <line x1="900" y1="1050" x2="930" y2="1050" stroke="#0891b2" stroke-width="3" marker-end="url(#ar-cyan)"/><text x="936" y="1054">Новые КТЯ 740/ч</text>
</g>
</svg>
