<?xml version="1.0" encoding="UTF-8"?>
<svg xmlns="http://www.w3.org/2000/svg" viewBox="0 0 1280 1090" width="100%" height="100%" style="background:#05050a;font-family:'Segoe UI',Arial,sans-serif">
<defs>
  <marker id="ar-red" viewBox="0 0 10 10" refX="8" refY="5" markerWidth="6" markerHeight="6" orient="auto"><path d="M0,0 L10,5 L0,10 z" fill="#ff2d55"/></marker>
  <marker id="ar-blue" viewBox="0 0 10 10" refX="8" refY="5" markerWidth="6" markerHeight="6" orient="auto"><path d="M0,0 L10,5 L0,10 z" fill="#0a84ff"/></marker>
  <marker id="ar-green" viewBox="0 0 10 10" refX="8" refY="5" markerWidth="6" markerHeight="6" orient="auto"><path d="M0,0 L10,5 L0,10 z" fill="#30d158"/></marker>
  <marker id="ar-orange" viewBox="0 0 10 10" refX="8" refY="5" markerWidth="6" markerHeight="6" orient="auto"><path d="M0,0 L10,5 L0,10 z" fill="#ff9f0a"/></marker>
  <marker id="ar-purple" viewBox="0 0 10 10" refX="8" refY="5" markerWidth="6" markerHeight="6" orient="auto"><path d="M0,0 L10,5 L0,10 z" fill="#bf5af2"/></marker>
  <marker id="ar-gray" viewBox="0 0 10 10" refX="8" refY="5" markerWidth="6" markerHeight="6" orient="auto"><path d="M0,0 L10,5 L0,10 z" fill="#8e8e93"/></marker>
  <marker id="ar-cyan" viewBox="0 0 10 10" refX="8" refY="5" markerWidth="6" markerHeight="6" orient="auto"><path d="M0,0 L10,5 L0,10 z" fill="#64d2ff"/></marker>
  <filter id="glow" x="-50%" y="-50%" width="200%" height="200%">
    <feGaussianBlur stdDeviation="6" result="blur"/>
    <feMerge><feMergeNode in="blur"/><feMergeNode in="SourceGraphic"/></feMerge>
  </filter>
  <filter id="softGlow" x="-30%" y="-30%" width="160%" height="160%">
    <feGaussianBlur stdDeviation="3" result="blur"/>
    <feMerge><feMergeNode in="blur"/><feMergeNode in="SourceGraphic"/></feMerge>
  </filter>
  <g id="truck"><rect x="0" y="3" width="30" height="14" rx="2" fill="#1c1c26"/><rect x="22" y="1" width="8" height="16" rx="2" fill="#2c2c3a"/><circle cx="8" cy="17" r="3" fill="#0a0a12" stroke="#64d2ff" stroke-width="1"/><circle cx="25" cy="17" r="3" fill="#0a0a12" stroke="#64d2ff" stroke-width="1"/></g>
  <g id="pallet"><rect x="0" y="3" width="18" height="12" rx="1" fill="#3a2410" stroke="#ff9f0a" stroke-width="0.8"/><rect x="2" y="5" width="14" height="8" rx="1" fill="#4a3018"/><line x1="2" y1="9" x2="16" y2="9" stroke="#ff9f0a" stroke-width="0.8"/></g>
  <g id="box"><rect x="0" y="2" width="14" height="11" rx="1" fill="#33260f" stroke="#ffd60a" stroke-width="0.8"/><path d="M0,2 L7,6 L14,2" fill="#45350f" stroke="#ffd60a" stroke-width="0.8"/></g>
  <g id="rollcage"><rect x="0" y="0" width="16" height="18" rx="1" fill="none" stroke="#ff9f0a" stroke-width="2"/><line x1="0" y1="6" x2="16" y2="6" stroke="#ff9f0a" stroke-width="1.2"/><line x1="0" y1="12" x2="16" y2="12" stroke="#ff9f0a" stroke-width="1.2"/><circle cx="5" cy="19" r="2.4" fill="#0a0a12" stroke="#64d2ff" stroke-width="1"/><circle cx="11" cy="19" r="2.4" fill="#0a0a12" stroke="#64d2ff" stroke-width="1"/></g>
</defs>

<rect x="20" y="20" width="1240" height="70" rx="10" fill="#101018" stroke="#2c2c3a" stroke-width="1.5"/>
<text x="640" y="48" text-anchor="middle" font-size="22" font-weight="800" fill="#64d2ff" filter="url(#softGlow)">СХЕМА СОРТИРОВОЧНОГО ЦЕНТРА — ВИД СВЕРХУ</text>
<text x="640" y="72" text-anchor="middle" font-size="12" fill="#8e8e93">100 000 товаров/ч • 3 700 КТЯ/ч • 185 паллет/ч • 400 направлений • 10 сортировщиков</text>

<!-- BUILDING -->
<rect x="60" y="90" width="1160" height="900" rx="14" fill="#0a0a12" stroke="#64d2ff" stroke-width="2" filter="url(#glow)"/>
<text x="640" y="82" text-anchor="middle" font-size="11" fill="#8e8e93">Здание 232 × 180 м • ≈40 680 м² • масштаб 5 px = 1 м</text>

<!-- INBOUND / OUTBOUND TRUCKS -->
<use href="#truck" x="14" y="500"/><use href="#truck" x="14" y="540"/>
<use href="#truck" x="1232" y="500"/><use href="#truck" x="1232" y="540"/>
<line x1="56" y1="520" x2="66" y2="520" stroke="#ff2d55" stroke-width="3" marker-end="url(#ar-red)" filter="url(#softGlow)"/>
<line x1="1224" y1="520" x2="1214" y2="520" stroke="#30d158" stroke-width="3" marker-end="url(#ar-green)" filter="url(#softGlow)"/>

<!-- ==== MAIN ZONES ==== -->
<rect x="70" y="260" width="110" height="500" rx="10" fill="#0a84ff" fill-opacity="0.18" stroke="#0a84ff" stroke-width="1.5" filter="url(#softGlow)"/>
<text x="125" y="300" transform="rotate(-90 125 300)" text-anchor="middle" font-size="15" font-weight="800" fill="#5ab5ff">ПРИЁМКА (8 ДОКОВ)</text>
<text x="125" y="700" transform="rotate(-90 125 700)" text-anchor="middle" font-size="9" fill="#3b94e8">22×100 м • 2 200 м² • 185 пал/ч</text>
<g fill="#0a84ff" fill-opacity="0.8"><rect x="60" y="270" width="12" height="30" rx="2"/><rect x="60" y="325" width="12" height="30" rx="2"/><rect x="60" y="380" width="12" height="30" rx="2"/><rect x="60" y="435" width="12" height="30" rx="2"/><rect x="60" y="490" width="12" height="30" rx="2"/><rect x="60" y="545" width="12" height="30" rx="2"/><rect x="60" y="600" width="12" height="30" rx="2"/><rect x="60" y="655" width="12" height="30" rx="2"/></g>

<rect x="196" y="260" width="38" height="500" rx="8" fill="#64d2ff" fill-opacity="0.15" stroke="#64d2ff" stroke-width="1.2"/>
<text x="215" y="290" transform="rotate(-90 215 290)" text-anchor="middle" font-size="10" font-weight="700" fill="#8ae2ff">БУФЕР ПРИЁМКИ</text>
<text x="215" y="700" transform="rotate(-90 215 700)" text-anchor="middle" font-size="7" fill="#54b7d9">7.6×100 • 760 м² • 400 мест</text>

<rect x="250" y="260" width="38" height="500" rx="8" fill="#30d158" fill-opacity="0.15" stroke="#30d158" stroke-width="1.2"/>
<text x="269" y="290" transform="rotate(-90 269 290)" text-anchor="middle" font-size="10" font-weight="700" fill="#66e98a">РАЗУКРУПНЕНИЕ</text>
<text x="269" y="700" transform="rotate(-90 269 700)" text-anchor="middle" font-size="7" fill="#3da35a">7.6×100 • 760 м² • депаллетайзеры</text>

<rect x="304" y="260" width="36" height="500" rx="8" fill="#34c759" fill-opacity="0.15" stroke="#34c759" stroke-width="1.2"/>
<text x="322" y="290" transform="rotate(-90 322 290)" text-anchor="middle" font-size="10" font-weight="700" fill="#5cdb7d">ВСКРЫТИЕ КТЯ</text>
<text x="322" y="700" transform="rotate(-90 322 700)" text-anchor="middle" font-size="7" fill="#37964e">7.2×100 • 720 м² • срез скотча</text>

<rect x="356" y="260" width="38" height="500" rx="8" fill="#28a745" fill-opacity="0.18" stroke="#28a745" stroke-width="1.2"/>
<text x="375" y="290" transform="rotate(-90 375 290)" text-anchor="middle" font-size="10" font-weight="700" fill="#52d06f">СТОК КТЯ + НОВЫЕ</text>
<text x="375" y="700" transform="rotate(-90 375 700)" text-anchor="middle" font-size="7" fill="#2f9b4a">7.6×100 • 760 м² • 2 960+740/ч</text>

<rect x="410" y="220" width="38" height="660" rx="8" fill="#ff9f0a" fill-opacity="0.16" stroke="#ff9f0a" stroke-width="1.5" filter="url(#softGlow)"/>
<text x="429" y="250" transform="rotate(-90 429 250)" text-anchor="middle" font-size="11" font-weight="800" fill="#ffc25e">ИНФИДЫ — 10 СТАНЦИЙ</text>
<text x="429" y="840" transform="rotate(-90 429 840)" text-anchor="middle" font-size="8" fill="#cf8430">7.6×132 м • 1 003 м² • сканеры, вес</text>

<!-- SORTING -->
<rect x="464" y="120" width="380" height="840" rx="10" fill="#ff2d55" fill-opacity="0.16" stroke="#ff2d55" stroke-width="2" filter="url(#softGlow)"/>
<text x="654" y="146" text-anchor="middle" font-size="19" font-weight="800" fill="#ff6b81">СОРТИРОВКА — 10 КОНВЕЙЕРОВ</text>
<text x="654" y="164" text-anchor="middle" font-size="10" fill="#e84a60">76×168 м • ≈12 768 м² • 100 000 товаров/ч • 400 направлений</text>
<g font-size="8" fill="#ff8b9c">
  <rect x="470" y="250.5" width="368" height="24" rx="4" fill="#1c1c26" stroke="#ff2d55" stroke-width="0.8"/><text x="472" y="265" fill="#ff6b81">К1</text>
  <rect x="470" y="315.5" width="368" height="24" rx="4" fill="#1c1c26" stroke="#ff2d55" stroke-width="0.8"/><text x="472" y="330" fill="#ff6b81">К2</text>
  <rect x="470" y="380.5" width="368" height="24" rx="4" fill="#1c1c26" stroke="#ff2d55" stroke-width="0.8"/><text x="472" y="395" fill="#ff6b81">К3</text>
  <rect x="470" y="445.5" width="368" height="24" rx="4" fill="#1c1c26" stroke="#ff2d55" stroke-width="0.8"/><text x="472" y="460" fill="#ff6b81">К4</text>
  <rect x="470" y="510.5" width="368" height="24" rx="4" fill="#1c1c26" stroke="#ff2d55" stroke-width="0.8"/><text x="472" y="525" fill="#ff6b81">К5</text>
  <rect x="470" y="575.5" width="368" height="24" rx="4" fill="#1c1c26" stroke="#ff2d55" stroke-width="0.8"/><text x="472" y="590" fill="#ff6b81">К6</text>
  <rect x="470" y="640.5" width="368" height="24" rx="4" fill="#1c1c26" stroke="#ff2d55" stroke-width="0.8"/><text x="472" y="655" fill="#ff6b81">К7</text>
  <rect x="470" y="705.5" width="368" height="24" rx="4" fill="#1c1c26" stroke="#ff2d55" stroke-width="0.8"/><text x="472" y="720" fill="#ff6b81">К8</text>
  <rect x="470" y="770.5" width="368" height="24" rx="4" fill="#1c1c26" stroke="#ff2d55" stroke-width="0.8"/><text x="472" y="785" fill="#ff6b81">К9</text>
  <rect x="470" y="835.5" width="368" height="24" rx="4" fill="#1c1c26" stroke="#ff2d55" stroke-width="0.8"/><text x="472" y="850" fill="#ff6b81">К10</text>
</g>

<!-- INFEED STATIONS -->
<g font-size="8" font-weight="700" fill="#ffc25e">
  <rect x="416" y="244.5" width="28" height="36" rx="4" fill="#ff9f0a" fill-opacity="0.25" stroke="#ff9f0a"/><text x="430" y="266" text-anchor="middle">И1</text>
  <rect x="416" y="309.5" width="28" height="36" rx="4" fill="#ff9f0a" fill-opacity="0.25" stroke="#ff9f0a"/><text x="430" y="331" text-anchor="middle">И2</text>
  <rect x="416" y="374.5" width="28" height="36" rx="4" fill="#ff9f0a" fill-opacity="0.25" stroke="#ff9f0a"/><text x="430" y="396" text-anchor="middle">И3</text>
  <rect x="416" y="439.5" width="28" height="36" rx="4" fill="#ff9f0a" fill-opacity="0.25" stroke="#ff9f0a"/><text x="430" y="461" text-anchor="middle">И4</text>
  <rect x="416" y="504.5" width="28" height="36" rx="4" fill="#ff9f0a" fill-opacity="0.25" stroke="#ff9f0a"/><text x="430" y="526" text-anchor="middle">И5</text>
  <rect x="416" y="569.5" width="28" height="36" rx="4" fill="#ff9f0a" fill-opacity="0.25" stroke="#ff9f0a"/><text x="430" y="591" text-anchor="middle">И6</text>
  <rect x="416" y="634.5" width="28" height="36" rx="4" fill="#ff9f0a" fill-opacity="0.25" stroke="#ff9f0a"/><text x="430" y="656" text-anchor="middle">И7</text>
  <rect x="416" y="699.5" width="28" height="36" rx="4" fill="#ff9f0a" fill-opacity="0.25" stroke="#ff9f0a"/><text x="430" y="721" text-anchor="middle">И8</text>
  <rect x="416" y="764.5" width="28" height="36" rx="4" fill="#ff9f0a" fill-opacity="0.25" stroke="#ff9f0a"/><text x="430" y="786" text-anchor="middle">И9</text>
  <rect x="416" y="829.5" width="28" height="36" rx="4" fill="#ff9f0a" fill-opacity="0.25" stroke="#ff9f0a"/><text x="430" y="851" text-anchor="middle">И10</text>
</g>

<rect x="860" y="260" width="46" height="430" rx="8" fill="#bf5af2" fill-opacity="0.16" stroke="#bf5af2" stroke-width="1.2"/>
<text x="883" y="290" transform="rotate(-90 883 290)" text-anchor="middle" font-size="10" font-weight="700" fill="#d68cf7">ЗАКЛЕЙКА</text>
<text x="883" y="640" transform="rotate(-90 883 640)" text-anchor="middle" font-size="7" fill="#9c5cc0">9.2×86 • 791 м² • 3 700/ч</text>

<rect x="922" y="260" width="80" height="430" rx="8" fill="#af52de" fill-opacity="0.16" stroke="#af52de" stroke-width="1.2"/>
<text x="962" y="290" transform="rotate(-90 962 290)" text-anchor="middle" font-size="10" font-weight="700" fill="#cc7ce9">СОРТИРОВКА КТЯ ПО НАПРАВЛЕНИЯМ</text>
<text x="962" y="640" transform="rotate(-90 962 640)" text-anchor="middle" font-size="7" fill="#9352b3">16×86 • 1 376 м² • 400 ячеек + буфер</text>

<rect x="1018" y="260" width="36" height="430" rx="8" fill="#5e5ce6" fill-opacity="0.18" stroke="#5e5ce6" stroke-width="1.2"/>
<text x="1036" y="290" transform="rotate(-90 1036 290)" text-anchor="middle" font-size="9" font-weight="700" fill="#8f8df2">ПАЛЛЕТИ- РОВАНИЕ</text>
<text x="1036" y="640" transform="rotate(-90 1036 640)" text-anchor="middle" font-size="7" fill="#6e6cd0">7.2×86 • 619 м² • 185 пал/ч</text>

<rect x="1070" y="260" width="130" height="720" rx="10" fill="#8e8e93" fill-opacity="0.14" stroke="#8e8e93" stroke-width="1.5"/>
<text x="1135" y="290" transform="rotate(-90 1135 290)" text-anchor="middle" font-size="13" font-weight="800" fill="#c4c4c8">ОТГРУЗКА (24 ВОРОТА)</text>
<text x="1135" y="920" transform="rotate(-90 1135 920)" text-anchor="middle" font-size="9" fill="#9a9aa0">26×144 • 3 744 м² • 12 маш/ч • 2 ч/маш</text>
<g fill="#8e8e93" fill-opacity="0.8"><rect x="1208" y="270" width="12" height="22" rx="2"/><rect x="1208" y="300" width="12" height="22" rx="2"/><rect x="1208" y="330" width="12" height="22" rx="2"/><rect x="1208" y="360" width="12" height="22" rx="2"/><rect x="1208" y="390" width="12" height="22" rx="2"/><rect x="1208" y="420" width="12" height="22" rx="2"/><rect x="1208" y="450" width="12" height="22" rx="2"/><rect x="1208" y="480" width="12" height="22" rx="2"/><rect x="1208" y="510" width="12" height="22" rx="2"/><rect x="1208" y="540" width="12" height="22" rx="2"/><rect x="1208" y="570" width="12" height="22" rx="2"/><rect x="1208" y="600" width="12" height="22" rx="2"/><rect x="1208" y="630" width="12" height="22" rx="2"/><rect x="1208" y="660" width="12" height="22" rx="2"/><rect x="1208" y="690" width="12" height="22" rx="2"/><rect x="1208" y="720" width="12" height="22" rx="2"/><rect x="1208" y="750" width="12" height="22" rx="2"/><rect x="1208" y="780" width="12" height="22" rx="2"/><rect x="1208" y="810" width="12" height="22" rx="2"/><rect x="1208" y="840" width="12" height="22" rx="2"/><rect x="1208" y="870" width="12" height="22" rx="2"/><rect x="1208" y="900" width="12" height="22" rx="2"/><rect x="1208" y="930" width="12" height="22" rx="2"/><rect x="1208" y="960" width="12" height="22" rx="2"/></g>

<!-- ==== AUX ZONES ==== -->
<rect x="70" y="100" width="324" height="148" rx="10" fill="#8e8e93" fill-opacity="0.12" stroke="#8e8e93" stroke-width="1.2"/>
<text x="232" y="130" text-anchor="middle" font-size="12" font-weight="800" fill="#b8b8bd">ИНФРАСТРУКТУРА</text>
<text x="232" y="148" text-anchor="middle" font-size="9" fill="#8e8e93">Серверная WMS/WES • диспетчерская</text>
<text x="232" y="164" text-anchor="middle" font-size="9" fill="#8e8e93">Зарядные станции AGV • бытовые</text>
<text x="232" y="220" text-anchor="middle" font-size="8" fill="#b8b8bd">64.8×29.6 м • ≈1 918 м²</text>

<rect x="860" y="100" width="194" height="148" rx="10" fill="#bf5af2" fill-opacity="0.14" stroke="#bf5af2" stroke-width="1.2"/>
<text x="957" y="130" text-anchor="middle" font-size="12" font-weight="800" fill="#d68cf7">ВОЗВРАТНЫЕ КАНАЛЫ</text>
<text x="957" y="148" text-anchor="middle" font-size="9" fill="#a75fd0">Повторный прогон • отбраковка</text>
<text x="957" y="164" text-anchor="middle" font-size="9" fill="#a75fd0">1–3 % исключений</text>
<text x="957" y="220" text-anchor="middle" font-size="8" fill="#d68cf7">38.8×29.6 м • ≈1 148 м²</text>

<rect x="70" y="772" width="324" height="128" rx="10" fill="#30d158" fill-opacity="0.12" stroke="#30d158" stroke-width="1.2"/>
<text x="232" y="800" text-anchor="middle" font-size="12" font-weight="800" fill="#66e98a">НАКОПИТЕЛЬ ПУСТЫХ ПАЛЛЕТ</text>
<text x="232" y="820" text-anchor="middle" font-size="9" fill="#3da35a">185 паллет/ч • возврат в циркуляцию</text>
<text x="232" y="866" text-anchor="middle" font-size="8" fill="#66e98a">64.8×25.6 м • ≈1 659 м²</text>
<use href="#pallet" x="180" y="840"/><use href="#pallet" x="210" y="840"/><use href="#pallet" x="240" y="840"/>

<rect x="70" y="912" width="120" height="68" rx="8" fill="#8e8e93" fill-opacity="0.12" stroke="#8e8e93" stroke-width="1.2"/>
<text x="130" y="936" text-anchor="middle" font-size="9" font-weight="800" fill="#b8b8bd">БРАК И ОТХОДЫ</text>
<text x="130" y="952" text-anchor="middle" font-size="7" fill="#8e8e93">740 КТЯ/ч • компактор</text>
<text x="130" y="966" text-anchor="middle" font-size="6" fill="#8e8e93">24×13.6 м • 326 м²</text>

<rect x="860" y="702" width="194" height="278" rx="10" fill="#ff9f0a" fill-opacity="0.15" stroke="#ff9f0a" stroke-width="1.5" filter="url(#softGlow)"/>
<text x="957" y="730" text-anchor="middle" font-size="13" font-weight="800" fill="#ffc25e">NONSORT</text>
<text x="957" y="748" text-anchor="middle" font-size="9" fill="#cf8430">Ручная сортировка по адресным ячейкам</text>
<text x="957" y="764" text-anchor="middle" font-size="9" fill="#cf8430">негабарит >320 мм, форма, хрупкость</text>
<text x="957" y="820" text-anchor="middle" font-size="8" fill="#ffc25e">38.8×55.6 м • ≈2 157 м²</text>
<text x="957" y="838" text-anchor="middle" font-size="8" fill="#ffc25e">до 192 роллтейнеров/ч (16 на машину)</text>
<use href="#rollcage" x="910" y="860"/><use href="#rollcage" x="940" y="860"/><use href="#rollcage" x="910" y="900"/><use href="#rollcage" x="940" y="900"/>

<!-- ==== FLOW ARROWS ==== -->
<g stroke-width="2.5">
  <line x1="182" y1="500" x2="195" y2="500" stroke="#0a84ff" marker-end="url(#ar-blue)" filter="url(#softGlow)"/>
  <line x1="236" y1="500" x2="249" y2="500" stroke="#0a84ff" marker-end="url(#ar-blue)" filter="url(#softGlow)"/>
  <line x1="290" y1="500" x2="303" y2="500" stroke="#64d2ff" marker-end="url(#ar-cyan)" filter="url(#softGlow)"/>
  <line x1="342" y1="500" x2="355" y2="500" stroke="#30d158" marker-end="url(#ar-green)" filter="url(#softGlow)"/>
  <line x1="396" y1="500" x2="409" y2="500" stroke="#ff9f0a" marker-end="url(#ar-orange)" filter="url(#softGlow)"/>
  <line x1="450" y1="262" x2="463" y2="262" stroke="#ff2d55" marker-end="url(#ar-red)"/>
  <line x1="450" y1="327" x2="463" y2="327" stroke="#ff2d55" marker-end="url(#ar-red)"/>
  <line x1="450" y1="392" x2="463" y2="392" stroke="#ff2d55" marker-end="url(#ar-red)"/>
  <line x1="450" y1="457" x2="463" y2="457" stroke="#ff2d55" marker-end="url(#ar-red)"/>
  <line x1="450" y1="522" x2="463" y2="522" stroke="#ff2d55" marker-end="url(#ar-red)"/>
  <line x1="450" y1="587" x2="463" y2="587" stroke="#ff2d55" marker-end="url(#ar-red)"/>
  <line x1="450" y1="652" x2="463" y2="652" stroke="#ff2d55" marker-end="url(#ar-red)"/>
  <line x1="450" y1="717" x2="463" y2="717" stroke="#ff2d55" marker-end="url(#ar-red)"/>
  <line x1="450" y1="782" x2="463" y2="782" stroke="#ff2d55" marker-end="url(#ar-red)"/>
  <line x1="450" y1="847" x2="463" y2="847" stroke="#ff2d55" marker-end="url(#ar-red)"/>
  <line x1="846" y1="500" x2="859" y2="500" stroke="#ff2d55" marker-end="url(#ar-red)"/>
  <line x1="908" y1="500" x2="921" y2="500" stroke="#bf5af2" marker-end="url(#ar-purple)"/>
  <line x1="1004" y1="500" x2="1017" y2="500" stroke="#0a84ff" marker-end="url(#ar-blue)"/>
  <line x1="1056" y1="500" x2="1069" y2="500" stroke="#30d158" marker-end="url(#ar-green)"/>
  <line x1="1056" y1="850" x2="1069" y2="850" stroke="#ff9f0a" marker-end="url(#ar-orange)"/>
</g>

<!-- vertical auxiliary flows -->
<path d="M 269 762 L 269 770" stroke="#30d158" stroke-width="2.5" marker-end="url(#ar-green)" fill="none"/>
<path d="M 396 760 L 396 962 L 192 962" stroke="#8e8e93" stroke-width="2" fill="none" marker-end="url(#ar-gray)" stroke-dasharray="4,3"/>
<path d="M 429 878 L 429 968 L 858 968" stroke="#ff9f0a" stroke-width="2" fill="none" marker-end="url(#ar-orange)" stroke-dasharray="4,3"/>
<path d="M 429 222 L 429 112 L 858 112" stroke="#bf5af2" stroke-width="2" fill="none" marker-end="url(#ar-purple)" stroke-dasharray="4,3"/>
<line x1="130" y1="980" x2="130" y2="986" stroke="#8e8e93" stroke-width="2" marker-end="url(#ar-gray)"/>

<!-- flow labels inside destination zones -->
<g font-size="8">
  <text x="196" y="256" font-size="8" fill="#54b7d9">паллеты 185/ч</text>
  <text x="250" y="256" font-size="8" fill="#3da35a">паллеты 185/ч</text>
  <text x="304" y="256" font-size="8" fill="#37964e">КТЯ 3 700/ч</text>
  <text x="356" y="256" font-size="8" fill="#2f9b4a">пустые КТЯ 2 960/ч</text>
  <text x="410" y="216" font-size="8" fill="#cf8430">КТЯ на инфиды</text>
  <text x="860" y="256" font-size="8" fill="#ff6b81">заполн. 3 700/ч</text>
  <text x="922" y="256" font-size="8" fill="#cc7ce9">по направлениям</text>
  <text x="1018" y="256" font-size="8" fill="#8f8df2">паллеты 185/ч</text>
</g>

<!-- LEGEND -->
<rect x="60" y="1010" width="1160" height="60" rx="10" fill="#101018" stroke="#2c2c3a" stroke-width="1.5"/>
<text x="80" y="1035" font-size="13" font-weight="800" fill="#64d2ff">УСЛОВНЫЕ ОБОЗНАЧЕНИЯ ПОТОКОВ</text>
<g font-size="10" fill="#a0a0a6">
  <line x1="80" y1="1050" x2="110" y2="1050" stroke="#ff2d55" stroke-width="3" marker-end="url(#ar-red)"/><text x="116" y="1054">Товары 100 000/ч</text>
  <line x1="240" y1="1050" x2="270" y2="1050" stroke="#0a84ff" stroke-width="3" marker-end="url(#ar-blue)"/><text x="276" y="1054">КТЯ</text>
  <line x1="330" y1="1050" x2="360" y2="1050" stroke="#30d158" stroke-width="3" marker-end="url(#ar-green)"/><text x="366" y="1054">Паллеты 185/ч</text>
  <line x1="450" y1="1050" x2="480" y2="1050" stroke="#ff9f0a" stroke-width="3" marker-end="url(#ar-orange)"/><text x="486" y="1054">Nonsort / роллтейнеры</text>
  <line x1="620" y1="1050" x2="650" y2="1050" stroke="#bf5af2" stroke-width="3" marker-end="url(#ar-purple)"/><text x="656" y="1054">Возвратные 1–3%</text>
  <line x1="780" y1="1050" x2="810" y2="1050" stroke="#8e8e93" stroke-width="3" marker-end="url(#ar-gray)"/><text x="816" y="1054">Брак 740/ч</text>
  <line x1="900" y1="1050" x2="930" y2="1050" stroke="#64d2ff" stroke-width="3" marker-end="url(#ar-cyan)"/><text x="936" y="1054">Новые КТЯ 740/ч</text>
</g>
</svg>
